<?xml version="1.0" standalone="no"?>
<!DOCTYPE svg PUBLIC "-//W3C//DTD SVG 20010904//EN"
 "http://www.w3.org/TR/2001/REC-SVG-20010904/DTD/svg10.dtd">
<svg version="1.0" xmlns="http://www.w3.org/2000/svg"
 width="229.000000pt" height="226.000000pt" viewBox="0 0 229.000000 226.000000"
 preserveAspectRatio="xMidYMid meet">

<g transform="translate(0.000000,226.000000) scale(0.100000,-0.100000)"
fill="#000000" stroke="none">
<path d="M0 1130 l0 -1130 1145 0 1145 0 0 1130 0 1130 -1145 0 -1145 0 0
-1130z m1370 960 c178 -43 393 -179 506 -320 29 -35 50 -68 48 -72 -2 -4 3
-11 12 -16 9 -5 12 -12 7 -15 -5 -3 -20 11 -33 31 -32 49 -168 184 -219 218
-22 14 -39 30 -36 34 3 4 -1 7 -8 6 -6 0 -46 16 -87 36 -41 20 -115 49 -165
64 -82 25 -105 27 -255 28 -177 1 -223 -7 -358 -61 -106 -42 -199 -102 -289
-187 -217 -204 -313 -441 -300 -738 10 -249 107 -461 289 -634 123 -117 237
-183 395 -230 125 -37 309 -44 443 -16 189 39 350 123 474 246 71 71 139 146
139 156 0 3 10 21 22 40 12 19 32 55 44 78 12 24 25 42 27 39 8 -7 -56 -131
-72 -140 -8 -5 -12 -12 -9 -16 2 -5 -6 -20 -19 -34 -13 -14 -22 -28 -20 -30 2
-2 -33 -42 -78 -88 -203 -207 -462 -311 -738 -295 -371 20 -683 232 -840 569
-63 135 -84 238 -84 402 0 169 22 272 88 411 56 118 115 201 208 290 145 140
301 219 509 259 101 19 288 12 399 -15z m-39 -423 c96 -28 184 -111 157 -148
-8 -11 -9 -10 -5 3 3 9 -1 22 -8 28 -8 7 -12 17 -9 22 4 6 -3 5 -15 -1 -24
-13 -25 -17 -9 -27 7 -4 8 -3 4 4 -4 7 -2 12 3 12 6 0 11 -6 12 -12 6 -72 6
-77 -5 -71 -6 4 -5 -1 2 -10 11 -12 12 -27 4 -63 -11 -48 -7 -78 9 -68 5 3 6
-2 3 -10 -3 -9 -9 -14 -13 -12 -3 2 -7 -8 -8 -22 l-1 -27 24 28 c13 16 24 26
24 23 0 -14 -24 -56 -32 -56 -5 0 -7 -4 -4 -9 8 -12 -43 -73 -55 -65 -5 3 -8
0 -7 -6 2 -7 -26 -28 -61 -48 -52 -29 -77 -36 -139 -40 -61 -4 -74 -2 -70 9 3
8 22 17 44 20 109 15 175 95 182 222 5 90 -12 148 -61 204 -54 61 -152 96
-209 74 l-28 -11 0 -402 c1 -222 5 -434 10 -473 11 -86 29 -105 102 -105 35 0
48 -4 46 -12 -6 -18 -440 -17 -446 0 -2 8 9 12 30 12 54 0 68 17 78 95 13 100
12 831 -1 878 -11 42 -37 57 -95 57 -30 0 -42 8 -30 21 3 3 121 4 263 3 206
-1 269 -4 314 -17z m642 -38 c2 -8 5 -18 8 -24 10 -17 19 -45 14 -45 -8 0 -36
60 -28 60 5 0 0 5 -10 11 -9 6 -15 15 -11 20 7 13 24 -1 27 -22z m50 -99 c3
-11 3 -20 1 -20 -2 0 -8 9 -14 20 -6 11 -7 20 -2 20 6 0 12 -9 15 -20z m-542
-63 c-10 -9 -11 -8 -5 6 3 10 9 15 12 12 3 -3 0 -11 -7 -18z m36 -34 c-3 -10
-5 -2 -5 17 0 19 2 27 5 18 2 -10 2 -26 0 -35z m533 37 c0 -5 -5 -10 -11 -10
-5 0 -7 5 -4 10 3 6 8 10 11 10 2 0 4 -4 4 -10z m5 -30 c3 -5 1 -10 -4 -10 -6
0 -11 5 -11 10 0 6 2 10 4 10 3 0 8 -4 11 -10z m14 -53 c0 -21 -1 -21 -9 -2
-12 28 -12 37 0 30 6 -3 10 -16 9 -28z m-566 -27 c9 -12 9 -13 -3 -3 -10 9
-17 10 -27 2 -9 -8 -13 -8 -13 0 0 6 5 11 10 11 6 0 10 8 11 18 0 13 2 14 6 2
3 -8 10 -22 16 -30z m14 18 c-3 -8 -6 -5 -6 6 -1 11 2 17 5 13 3 -3 4 -12 1
-19z m570 -130 c-3 -7 -5 -2 -5 12 0 14 2 19 5 13 2 -7 2 -19 0 -25z m10 -65
c-3 -10 -5 -4 -5 12 0 17 2 24 5 18 2 -7 2 -21 0 -30z m-4 -165 c-3 -24 -10
-50 -15 -58 -5 -9 -6 0 -2 25 12 79 26 106 17 33z m-26 -135 c-3 -10 -5 -2 -5
17 0 19 2 27 5 18 2 -10 2 -26 0 -35z m-12 -33 c3 -5 1 -10 -4 -10 -6 0 -11 5
-11 10 0 6 2 10 4 10 3 0 8 -4 11 -10z m-5 -24 c0 -3 -4 -8 -10 -11 -5 -3 -10
-1 -10 4 0 6 5 11 10 11 6 0 10 -2 10 -4z"/>
<path d="M1430 1606 c0 -2 8 -10 18 -17 15 -13 16 -12 3 4 -13 16 -21 21 -21
13z"/>
<path d="M1426 1223 c-6 -14 -5 -15 5 -6 7 7 10 15 7 18 -3 3 -9 -2 -12 -12z"/>
</g>
</svg>
